<svg id="Layer_1" data-name="Layer 1" xmlns="http://www.w3.org/2000/svg" xmlns:xlink="http://www.w3.org/1999/xlink" viewBox="0 0 235.34 121.68"><defs><style>.cls-1{fill:none;stroke-miterlimit:10;stroke-width:5px;stroke:url(#linear-gradient);}.cls-2{fill:url(#linear-gradient-2);}.cls-3{fill:url(#linear-gradient-3);}.cls-4{fill:url(#linear-gradient-4);}.cls-5{fill:url(#linear-gradient-5);}.cls-6{fill:#fff;}.cls-7{fill:url(#linear-gradient-6);}.cls-8{fill:#010101;}.cls-9{font-size:17.19px;fill:#231f20;font-family:Dubai-Light, Dubai;font-weight:300;letter-spacing:0.56em;}.cls-10{letter-spacing:0.57em;}.cls-11{letter-spacing:0.54em;}.cls-12{letter-spacing:0.57em;}.cls-13{letter-spacing:0.56em;}.cls-14{letter-spacing:0.56em;}.cls-15{letter-spacing:0.57em;}</style><linearGradient id="linear-gradient" x1="119.4" y1="90.73" x2="119.4" y2="-30.95" gradientTransform="matrix(1, 0, 0, -1, 0, 94.75)" gradientUnits="userSpaceOnUse"><stop offset="0" stop-color="#1ba7d8"/><stop offset="0.14" stop-color="#34c5f3"/><stop offset="0.29" stop-color="#1884af"/><stop offset="0.65" stop-color="#34c5f3"/><stop offset="1" stop-color="#15759f"/></linearGradient><linearGradient id="linear-gradient-2" x1="125.9" y1="61.73" x2="161.36" y2="61.73" gradientTransform="matrix(1, 0, 0, -1, 0, 94.75)" gradientUnits="userSpaceOnUse"><stop offset="0.06" stop-color="#b0e2f3"/><stop offset="0.14" stop-color="#1ba7d8"/><stop offset="0.52" stop-color="#3bb3dd"/><stop offset="0.57" stop-color="#b0e2f3"/><stop offset="0.59" stop-color="#b0e2f3"/><stop offset="0.64" stop-color="#0e94cc"/></linearGradient><linearGradient id="linear-gradient-3" x1="125.9" y1="-2.27" x2="162.17" y2="-2.27" xlink:href="#linear-gradient-2"/><linearGradient id="linear-gradient-4" x1="112.75" y1="-1.28" x2="76.46" y2="-1.28" xlink:href="#linear-gradient-2"/><linearGradient id="linear-gradient-5" x1="113.02" y1="62.73" x2="77.02" y2="62.73" xlink:href="#linear-gradient-2"/><linearGradient id="linear-gradient-6" x1="121.46" y1="52.4" x2="121.46" y2="24.9" gradientTransform="matrix(1, 0, 0, -1, 0, 95.64)" gradientUnits="userSpaceOnUse"><stop offset="0" stop-color="#15aad7"/><stop offset="0.16" stop-color="#24444c"/><stop offset="0.22" stop-color="#010101"/></linearGradient></defs><title>BytePulse</title><path class="cls-1" d="M130.67,64.86c0,16.67-1.53,31.69-4,42.47a51.73,51.73,0,0,1-4.15,12.41,10.69,10.69,0,0,1-2,2.87,1.32,1.32,0,0,1-2.2,0,10.9,10.9,0,0,1-2.06-2.87,51.78,51.78,0,0,1-4.14-12.41c-2.44-10.78-4-25.8-4-42.47s1.53-31.69,4-42.47A51.78,51.78,0,0,1,116.24,10a10.9,10.9,0,0,1,2.06-2.87,1.32,1.32,0,0,1,2.2,0,10.69,10.69,0,0,1,2,2.87,51.73,51.73,0,0,1,4.15,12.41C129.14,33.17,130.67,48.19,130.67,64.86Z" transform="translate(-6.98 -4.02)"/><path class="cls-2" d="M161.36,33.52,125.9,32l.31,2Z" transform="translate(-6.98 -4.02)"/><path class="cls-3" d="M162.17,97.52l-36-1.5-.27,2Z" transform="translate(-6.98 -4.02)"/><path class="cls-4" d="M76.46,96.52l36-1.5.29,2Z" transform="translate(-6.98 -4.02)"/><path class="cls-5" d="M77,32.52,113,31l-.31,2Z" transform="translate(-6.98 -4.02)"/><ellipse class="cls-6" cx="120.25" cy="50.99" rx="16.68" ry="15.26"/><rect class="cls-6" x="73.77" y="34.87" width="31.09" height="52.47"/><path class="cls-7" d="M130.73,46.7a7,7,0,0,0-4.23-3.06,35.67,35.67,0,0,0-6.68-.4h-9v4.63h5.6V48h2.73a26.68,26.68,0,0,1,4.05.2,3.42,3.42,0,0,1,3.13,3.73,3.62,3.62,0,0,1-.62,2.17,4.06,4.06,0,0,1-2.81,1.62,19.44,19.44,0,0,1-3.38.18h-8.7V71.07h5.6V60.56h3.67a30.76,30.76,0,0,0,5.83-.4,8,8,0,0,0,2.93-1.31c2.2-1.53,3.29-3.87,3.29-7A9.14,9.14,0,0,0,130.73,46.7Z" transform="translate(-6.98 -4.02)"/><path class="cls-8" d="M25.31,56.32s-.06-.08,0-.1a6.67,6.67,0,0,0,2.77-2.44,6.88,6.88,0,0,0,1-3.83,6.42,6.42,0,0,0-3-5.27,8.67,8.67,0,0,0-3.8-1.3c-.76-.09-2.11-.13-4-.13H7.13V71.08H16.6c3.37,0,5.62-.07,6.79-.2a7.89,7.89,0,0,0,3.76-1.33A7.48,7.48,0,0,0,30.44,63C30.44,59.6,28.72,57.37,25.31,56.32Zm-3.49,9.9A23.76,23.76,0,0,1,18,66.4h-5.2V47.87H16c2.68,0,4.28,0,4.81.11a2.81,2.81,0,0,1,2.83,3.08q0,2.77-3.1,3.15c-.52.07-1.87.09-4.07.09h-.6v4.64h1.44a19,19,0,0,1,5,.4,3.3,3.3,0,0,1,2.36,3.4A3.17,3.17,0,0,1,21.82,66.22Z" transform="translate(-6.98 -4.02)"/><path class="cls-8" d="M58.32,43.26,48.09,59.42V71.08H42.51V59.37L32.29,43.26h5.3a2.32,2.32,0,0,1,2,1.14l2.56,4.33a3.78,3.78,0,0,0,6.53,0l3.18-5.45Z" transform="translate(-6.98 -4.02)"/><path class="cls-8" d="M59.14,45.6v0A2.34,2.34,0,0,0,61.48,48h5.9V71.09H73V48h3.49A2.35,2.35,0,0,0,78.35,47l2.9-3.78H61.48A2.35,2.35,0,0,0,59.14,45.6Z" transform="translate(-6.98 -4.02)"/><path class="cls-8" d="M90.48,65.63v-6.8h11.65a2.34,2.34,0,0,0,2.34-2.34v0a2.34,2.34,0,0,0-2.34-2.34H90.48v-5.4a.77.77,0,0,1,.77-.77h11.92a2.34,2.34,0,0,0,2.34-2.34v0a2.34,2.34,0,0,0-2.34-2.34H84.88V71.09h18.83a2.34,2.34,0,0,0,0-4.68H91.26A.78.78,0,0,1,90.48,65.63Z" transform="translate(-6.98 -4.02)"/><path class="cls-8" d="M153.27,43.26V58.67a32,32,0,0,1-.25,4.72q-.57,3.38-5.08,3.38T142.52,63a31.14,31.14,0,0,1-.2-4.66V43.26h-5.63V58.09a34.32,34.32,0,0,0,.54,7.07,7.62,7.62,0,0,0,1.58,3.08c1.8,2.21,4.9,3.33,9.31,3.33,4,0,6.84-1,8.62-3.13a9.43,9.43,0,0,0,1.94-5.06,51.89,51.89,0,0,0,.18-5.51V43.26Z" transform="translate(-6.98 -4.02)"/><path class="cls-8" d="M170.58,66.41V43.47H165V71.08h17.26a2.34,2.34,0,1,0,0-4.68H170.58Z" transform="translate(-6.98 -4.02)"/><path class="cls-8" d="M205.58,55.71a35.81,35.81,0,0,0-6-1.91q-4.19-1.08-5.2-2a2.09,2.09,0,0,1-.85-1.69,2,2,0,0,1,.88-1.73,6.58,6.58,0,0,1,3.83-1,6,6,0,0,1,3.49.86,4.71,4.71,0,0,1,1.62,3.15l5.63-.23a7.88,7.88,0,0,0-3.33-6.57,13,13,0,0,0-7.34-1.87,13.9,13.9,0,0,0-5.49,1,7.68,7.68,0,0,0-3.37,2.68,6.84,6.84,0,0,0-1.31,4.1,7.27,7.27,0,0,0,2.57,5.62c1.21,1.08,3.31,2,6.32,2.74,2.38.59,3.89,1,4.52,1.22,1.73.61,2.59,1.58,2.59,2.9a3.24,3.24,0,0,1-1.85,3,7.23,7.23,0,0,1-3.6.83c-3.42,0-5.45-1.76-6.08-5.31l-5.45.52q1.11,9.52,11.47,9.54a16.13,16.13,0,0,0,6.07-1,8.22,8.22,0,0,0,3.71-3A8,8,0,0,0,209.77,63,7.64,7.64,0,0,0,205.58,55.71Z" transform="translate(-6.98 -4.02)"/><path class="cls-8" d="M220.09,66.41V58.83h11.65a2.34,2.34,0,0,0,2.34-2.34v0a2.34,2.34,0,0,0-2.34-2.34H220.09V48h12.69a2.34,2.34,0,0,0,2.34-2.34h0a2.34,2.34,0,0,0-2.34-2.34H221.87a7.37,7.37,0,0,0-7.38,7.38V71.09h18.83a2.34,2.34,0,0,0,0-4.68Z" transform="translate(-6.98 -4.02)"/><text class="cls-9" transform="translate(0 85.53)">S<tspan class="cls-10" x="19.11" y="0">O</tspan><tspan class="cls-11" x="40.86" y="0">L</tspan><tspan class="cls-12" x="58.89" y="0">UTION</tspan><tspan class="cls-13" x="157.67" y="0">.</tspan><tspan class="cls-14" x="170.21" y="0">C</tspan><tspan class="cls-15" x="189.58" y="0">OM</tspan></text></svg>